<?xml version="1.0" encoding="UTF-8"?>
<!DOCTYPE svg PUBLIC "-//W3C//DTD SVG 1.1//EN" "http://www.w3.org/Graphics/SVG/1.1/DTD/svg11.dtd">
<svg version="1.1" xmlns="http://www.w3.org/2000/svg" xmlns:xlink="http://www.w3.org/1999/xlink" x="0" y="0" width="105" height="60" viewBox="0, 0, 105, 60">
  <g id="Layer_1">
    <path d="M85.876,25.296 C85.416,24.82 84.659,24.82 84.199,25.296 C83.683,25.811 83.744,26.701 84.386,27.125 C84.776,27.386 85.299,27.386 85.689,27.125 C86.329,26.701 86.392,25.811 85.876,25.296 M84.322,21.109 C81.04,20.339 78.09,23.289 78.859,26.571 C79.251,28.243 80.579,29.57 82.251,29.963 C85.535,30.734 88.487,27.782 87.714,24.498 C87.32,22.825 85.993,21.498 84.322,21.109 M29.507,51.576 C25.613,51.577 21.727,50.001 19.366,47.464 C16.453,44.335 14.697,41.192 14.932,35.195 C15.079,31.415 17.176,27.265 20.543,24.094 C25.398,19.517 31.899,16.203 38.846,14.763 C41.525,14.21 44.3,13.929 47.092,13.929 C48.476,13.929 49.88,13.999 51.263,14.138 C55.125,14.521 58.757,15.234 62.058,16.256 C63.85,16.814 65.569,17.469 67.169,18.204 C67.394,18.306 67.63,18.412 67.871,18.52 C69.197,19.106 70.699,19.774 71.64,20.732 L72.004,21.1 L72.003,20.583 C72.003,19.462 71.98,18.303 71.959,17.182 C71.94,16.215 71.922,15.302 71.922,14.547 C71.922,14.153 72.252,13.91 72.558,13.91 C72.649,13.91 72.735,13.93 72.819,13.969 C73.585,14.326 74.687,14.842 75.954,15.436 C78.676,16.713 82.064,18.301 84.624,19.471 C86.83,20.479 88.305,22.185 89.129,24.688 C89.849,26.865 89.992,29.325 90.085,31.861 C90.087,31.946 90.09,32.025 90.067,32.073 C90.054,32.1 89.971,32.21 89.391,32.21 C89.3,32.21 89.213,32.208 89.135,32.205 C89.07,32.203 89.01,32.201 88.962,32.201 L88.931,32.202 C88.775,32.203 88.6,32.204 88.412,32.205 C87.873,32.209 87.259,32.212 86.808,32.231 C86.347,32.251 85.888,32.261 85.402,32.261 C84.739,32.261 84.032,32.241 83.24,32.202 C81.244,32.105 79.113,31.259 77.537,29.942 C77.398,29.824 77.144,29.743 76.917,29.743 C76.712,29.743 76.54,29.808 76.421,29.932 C76.108,30.255 76.197,30.753 76.396,30.956 C77.231,31.8 78.13,32.347 79.22,32.91 C80.513,33.575 81.883,33.775 83.542,33.872 C84.16,33.908 84.78,33.926 85.385,33.926 C86.371,33.926 87.35,33.877 88.293,33.78 L88.527,33.755 C88.734,33.734 88.912,33.715 89.053,33.705 C88.929,33.811 88.745,33.955 88.5,34.136 C87.5,34.879 86.246,35.506 84.776,36.001 C82.96,36.619 80.979,36.96 78.886,37.02 C78.681,37.025 78.474,37.028 78.268,37.028 C77.272,37.028 76.261,36.962 75.261,36.832 C75.001,36.8 74.739,36.762 74.484,36.723 C74.123,36.669 73.748,36.613 73.374,36.575 C73.288,36.567 73.201,36.557 73.114,36.547 C72.856,36.518 72.589,36.486 72.321,36.486 C72.115,36.486 71.931,36.505 71.758,36.542 C71.228,36.658 70.766,36.945 70.454,37.348 C69.996,37.946 69.873,39.466 70.118,40.123 C70.602,41.431 71.688,42.163 72.667,42.745 C72.983,42.935 73.327,43.088 73.657,43.236 C74.472,43.603 75.182,43.921 75.413,44.65 C75.11,44.73 74.198,44.788 73.188,44.788 L73.066,44.788 L69.893,44.788 C69.887,44.788 69.778,44.79 69.607,44.79 C68.651,44.79 67.908,44.72 67.572,44.597 L67.561,44.593 C67.556,44.591 67.55,44.588 67.543,44.585 C67.254,44.429 67.113,44.006 66.998,43.664 L66.993,43.648 C66.832,43.169 66.557,42.664 66.102,42.013 C65.209,40.738 64.065,39.75 63.043,39.372 C61.565,38.825 60.683,38.725 59.48,38.725 C59.133,38.725 58.762,38.733 58.334,38.744 C58.01,38.751 57.656,38.759 57.263,38.765 C56.958,38.767 56.702,38.769 56.474,38.769 C55.949,38.769 55.6,38.761 55.195,38.751 C54.703,38.738 54.145,38.724 53.137,38.724 C52.813,38.724 52.573,39.073 52.495,39.656 C52.348,40.733 52.785,42.515 54.585,43.009 C54.748,43.054 54.913,43.097 55.078,43.139 C55.953,43.363 56.856,43.595 57.49,44.243 C57.695,44.455 57.756,44.639 57.73,44.698 C57.718,44.729 57.627,44.788 57.376,44.788 L51.157,44.788 C50.116,44.788 49.326,44.744 48.663,44.183 C47.548,43.242 47.004,41.979 46.427,40.642 L46.333,40.425 C45.592,38.714 44.919,37.354 44.216,36.145 C42.389,33.007 40.175,30.726 37.638,29.366 C35.637,28.293 33.145,27.678 30.804,27.678 C27.98,27.678 25.354,28.547 23.214,30.19 C21.065,31.841 19.863,34.245 19.834,36.96 C19.799,39.996 21.262,43.074 23.652,44.996 C25.171,46.219 27.191,46.892 29.341,46.892 C29.545,46.892 29.752,46.886 29.958,46.874 C32.362,46.734 34.474,45.703 35.752,44.047 C36.798,42.69 37.185,41.003 36.84,39.297 C36.551,37.861 35.7,36.607 34.567,35.941 C33.802,35.493 32.849,35.264 31.731,35.263 L31.713,35.263 C30.419,35.263 29.423,35.59 28.755,36.236 C27.822,37.14 27.669,38.744 28.417,39.811 C28.517,39.953 28.632,40.09 28.743,40.221 C29.066,40.604 29.345,40.935 29.279,41.375 C29.224,41.744 28.911,42.053 28.499,42.144 C28.396,42.166 28.291,42.179 28.186,42.179 C27.535,42.179 26.969,41.735 26.608,41.363 C25.268,39.983 24.847,37.78 25.584,36.003 C26.601,33.549 29.328,32.452 31.58,32.452 C31.658,32.452 31.736,32.453 31.813,32.455 C35.09,32.566 38.217,34.703 39.596,37.77 C40.935,40.751 40.573,44.474 38.672,47.25 C36.791,49.999 33.451,51.576 29.507,51.576 M86.578,25.534 C86.578,27.358 85.102,28.835 83.277,28.835 C81.454,28.835 79.979,27.358 79.979,25.534 C79.979,23.712 81.454,22.234 83.277,22.234 C85.102,22.234 86.578,23.712 86.578,25.534" fill="#FFFFFF"/>
  </g>
</svg>
